<svg width="28" height="29" viewBox="0 0 28 29" fill="none" xmlns="http://www.w3.org/2000/svg">
<g filter="url(#filter0_d_540_1459)">
<rect x="6.40308" y="3.02551" width="11.0853" height="3.73864" fill="white"/>
<ellipse cx="18.4573" cy="15.3253" rx="3.02326" ry="3.05256" fill="white"/>
<rect x="5.12402" y="16.9062" width="7.94574" height="2.14773" fill="white"/>
<path d="M20.298 9.52448C18.9435 8.92217 17.4198 8.82694 16.0016 9.25596C14.5835 9.68498 13.3643 10.61 12.5637 11.8643C11.7631 13.1186 11.4339 14.6197 11.6354 16.0968C11.8369 17.5739 12.5559 18.93 13.6626 19.9205L17.7889 15.2457L20.298 9.52448Z" fill="white"/>
<path d="M6.46851 0.5H17.8236C18.4783 0.5 19.1062 0.75541 19.5691 1.21004C20.0321 1.66468 20.2922 2.28129 20.2922 2.92424V9.53079C19.167 9.17278 17.963 9.12706 16.813 9.39868C15.6631 9.67031 14.612 10.2487 13.7756 11.07C12.9393 11.8914 12.3503 12.9237 12.0738 14.053C11.7972 15.1823 11.8437 16.3647 12.2083 17.4697H5.4811C5.4811 17.7269 5.58513 17.9735 5.77031 18.1554C5.95548 18.3372 6.20663 18.4394 6.46851 18.4394H12.622C12.9047 18.9714 13.2631 19.4612 13.6864 19.8939H6.46851C5.81382 19.8939 5.18594 19.6385 4.72301 19.1839C4.26007 18.7293 4 18.1126 4 17.4697V2.92424C4 2.28129 4.26007 1.66468 4.72301 1.21004C5.18594 0.75541 5.81382 0.5 6.46851 0.5ZM7.94961 3.40909C7.68774 3.40909 7.43659 3.51126 7.25141 3.69311C7.06624 3.87496 6.96221 4.12161 6.96221 4.37879V5.34848C6.96221 5.60566 7.06624 5.85231 7.25141 6.03416C7.43659 6.21602 7.68774 6.31818 7.94961 6.31818H15.8488C16.1107 6.31818 16.3619 6.21602 16.547 6.03416C16.7322 5.85231 16.8362 5.60566 16.8362 5.34848V4.37879C16.8362 4.12161 16.7322 3.87496 16.547 3.69311C16.3619 3.51126 16.1107 3.40909 15.8488 3.40909H7.94961ZM23.7481 15.5303C23.7481 14.1158 23.1759 12.7593 22.1574 11.7591C21.139 10.7589 19.7577 10.197 18.3173 10.197C16.877 10.197 15.4957 10.7589 14.4772 11.7591C13.4588 12.7593 12.8866 14.1158 12.8866 15.5303C12.8866 16.9448 13.4588 18.3013 14.4772 19.3015C15.4957 20.3017 16.877 20.8636 18.3173 20.8636C19.7577 20.8636 21.139 20.3017 22.1574 19.3015C23.1759 18.3013 23.7481 16.9448 23.7481 15.5303ZM17.7387 13.2001L20.5094 14.9844C20.5952 15.0385 20.6657 15.1132 20.714 15.2014C20.7624 15.2896 20.7871 15.3884 20.7859 15.4886C20.786 15.5894 20.7616 15.6888 20.7148 15.7785C20.6706 15.8673 20.6031 15.943 20.5193 15.9977L17.7476 17.8547C17.6994 17.8865 17.6469 17.9117 17.5916 17.9293C17.4633 17.9696 17.3243 17.9616 17.2016 17.907C17.1308 17.8745 17.0664 17.8302 17.011 17.7761C16.9575 17.7189 16.9142 17.6534 16.8826 17.5822C16.8518 17.5094 16.836 17.4312 16.8362 17.3524V13.7082C16.8357 13.5916 16.8697 13.4772 16.934 13.3791C16.9983 13.281 17.0902 13.2034 17.1986 13.1555C17.2847 13.1159 17.3798 13.0991 17.4746 13.1067C17.5693 13.1144 17.6604 13.1463 17.7387 13.1992" fill="black"/>
</g>
<defs>
<filter id="filter0_d_540_1459" x="0" y="0.5" width="28" height="29" filterUnits="userSpaceOnUse" color-interpolation-filters="sRGB">
<feFlood flood-opacity="0" result="BackgroundImageFix"/>
<feColorMatrix in="SourceAlpha" type="matrix" values="0 0 0 0 0 0 0 0 0 0 0 0 0 0 0 0 0 0 127 0" result="hardAlpha"/>
<feOffset dy="4"/>
<feGaussianBlur stdDeviation="2"/>
<feComposite in2="hardAlpha" operator="out"/>
<feColorMatrix type="matrix" values="0 0 0 0 0 0 0 0 0 0 0 0 0 0 0 0 0 0 0.25 0"/>
<feBlend mode="normal" in2="BackgroundImageFix" result="effect1_dropShadow_540_1459"/>
<feBlend mode="normal" in="SourceGraphic" in2="effect1_dropShadow_540_1459" result="shape"/>
</filter>
</defs>
</svg>
