<svg width="25" height="25" viewBox="0 0 25 25" fill="none" xmlns="http://www.w3.org/2000/svg">
<rect x="5" y="2.5" width="15" height="20" rx="4" fill="white"/>
<path d="M17 2H8C7.20435 2 6.44129 2.31607 5.87868 2.87868C5.31607 3.44129 5 4.20435 5 5V20C5 20.7956 5.31607 21.5587 5.87868 22.1213C6.44129 22.6839 7.20435 23 8 23H19.25C19.4489 23 19.6397 22.921 19.7803 22.7803C19.921 22.6397 20 22.4489 20 22.25C20 22.0511 19.921 21.8603 19.7803 21.7197C19.6397 21.579 19.4489 21.5 19.25 21.5H8C7.60218 21.5 7.22064 21.342 6.93934 21.0607C6.65804 20.7794 6.5 20.3978 6.5 20V19.9955H19.25C19.4489 19.9955 19.6397 19.9165 19.7803 19.7758C19.921 19.6352 20 19.4444 20 19.2455V5C20 4.20435 19.6839 3.44129 19.1213 2.87868C18.5587 2.31607 17.7956 2 17 2ZM8 5.75H17C17.1989 5.75 17.3897 5.82902 17.5303 5.96967C17.671 6.11032 17.75 6.30109 17.75 6.5V8C17.75 8.19891 17.671 8.38968 17.5303 8.53033C17.3897 8.67098 17.1989 8.75 17 8.75H8C7.80109 8.75 7.61032 8.67098 7.46967 8.53033C7.32902 8.38968 7.25 8.19891 7.25 8V6.5C7.25 6.30109 7.32902 6.11032 7.46967 5.96967C7.61032 5.82902 7.80109 5.75 8 5.75Z" fill="black"/>
</svg>
