<svg width="24" height="25" viewBox="0 0 24 25" fill="none" xmlns="http://www.w3.org/2000/svg">
<path fill-rule="evenodd" clip-rule="evenodd" d="M5.99996 11.3C6.63648 11.3 7.24693 11.0472 7.69702 10.5971C8.14711 10.147 8.39996 9.53657 8.39996 8.90005C8.39996 8.26353 8.14711 7.65308 7.69702 7.20299C7.24693 6.75291 6.63648 6.50005 5.99996 6.50005C5.36344 6.50005 4.75299 6.75291 4.30291 7.20299C3.85282 7.65308 3.59996 8.26353 3.59996 8.90005C3.59996 9.53657 3.85282 10.147 4.30291 10.5971C4.75299 11.0472 5.36344 11.3 5.99996 11.3ZM5.99996 12.5C6.47272 12.5 6.94085 12.4069 7.37762 12.226C7.8144 12.0451 8.21126 11.7799 8.54555 11.4456C8.87984 11.1113 9.14501 10.7145 9.32593 10.2777C9.50685 9.84094 9.59996 9.37281 9.59996 8.90005C9.59996 8.42729 9.50685 7.95916 9.32593 7.52239C9.14501 7.08562 8.87984 6.68876 8.54555 6.35446C8.21126 6.02017 7.8144 5.755 7.37762 5.57408C6.94085 5.39317 6.47272 5.30005 5.99996 5.30005C5.04518 5.30005 4.12951 5.67933 3.45438 6.35446C2.77925 7.0296 2.39996 7.94527 2.39996 8.90005C2.39996 9.85483 2.77925 10.7705 3.45438 11.4456C4.12951 12.1208 5.04518 12.5 5.99996 12.5Z" fill="black"/>
<path fill-rule="evenodd" clip-rule="evenodd" d="M4.62479 11.1752C4.68066 11.2309 4.72499 11.2971 4.75524 11.37C4.78549 11.4429 4.80106 11.5211 4.80106 11.6C4.80106 11.6789 4.78549 11.7571 4.75524 11.8299C4.72499 11.9028 4.68066 11.9691 4.62479 12.0248L4.21919 12.4292C3.43863 13.21 3.00009 14.2688 2.99999 15.3728V17.6C2.99999 17.7591 2.93677 17.9117 2.82425 18.0243C2.71173 18.1368 2.55912 18.2 2.39999 18.2C2.24086 18.2 2.08825 18.1368 1.97572 18.0243C1.8632 17.9117 1.79999 17.7591 1.79999 17.6V15.3728C1.80016 13.9505 2.36517 12.5866 3.37079 11.5808L3.77519 11.1752C3.83092 11.1193 3.89713 11.075 3.97003 11.0447C4.04292 11.0145 4.12107 10.9989 4.19999 10.9989C4.27891 10.9989 4.35705 11.0145 4.42995 11.0447C4.50284 11.075 4.56905 11.1193 4.62479 11.1752ZM18.7752 10.8152C18.7193 10.8709 18.675 10.9371 18.6447 11.01C18.6145 11.0829 18.5989 11.1611 18.5989 11.24C18.5989 11.3189 18.6145 11.3971 18.6447 11.4699C18.675 11.5428 18.7193 11.6091 18.7752 11.6648L19.1808 12.0692C19.5673 12.4558 19.874 12.9147 20.0831 13.4197C20.2923 13.9248 20.4 14.4661 20.4 15.0128V17.6C20.4 17.7591 20.4632 17.9117 20.5757 18.0243C20.6882 18.1368 20.8409 18.2 21 18.2C21.1591 18.2 21.3117 18.1368 21.4243 18.0243C21.5368 17.9117 21.6 17.7591 21.6 17.6V15.0128C21.5998 13.5905 21.0348 12.2266 20.0292 11.2208L19.6248 10.8152C19.5691 10.7593 19.5028 10.715 19.4299 10.6847C19.3571 10.6545 19.2789 10.6389 19.2 10.6389C19.1211 10.6389 19.0429 10.6545 18.97 10.6847C18.8971 10.715 18.8309 10.7593 18.7752 10.8152Z" fill="black"/>
<path fill-rule="evenodd" clip-rule="evenodd" d="M16.8 11.3C16.1635 11.3 15.553 11.0472 15.103 10.5971C14.6529 10.147 14.4 9.53657 14.4 8.90005C14.4 8.26353 14.6529 7.65308 15.103 7.20299C15.553 6.75291 16.1635 6.50005 16.8 6.50005C17.4365 6.50005 18.047 6.75291 18.4971 7.20299C18.9472 7.65308 19.2 8.26353 19.2 8.90005C19.2 9.53657 18.9472 10.147 18.4971 10.5971C18.047 11.0472 17.4365 11.3 16.8 11.3ZM16.8 12.5C16.3273 12.5 15.8591 12.4069 15.4224 12.226C14.9856 12.0451 14.5887 11.7799 14.2544 11.4456C13.9201 11.1113 13.655 10.7145 13.474 10.2777C13.2931 9.84094 13.2 9.37281 13.2 8.90005C13.2 8.42729 13.2931 7.95916 13.474 7.52239C13.655 7.08562 13.9201 6.68876 14.2544 6.35446C14.5887 6.02017 14.9856 5.755 15.4224 5.57408C15.8591 5.39317 16.3273 5.30005 16.8 5.30005C17.7548 5.30005 18.6705 5.67933 19.3456 6.35446C20.0207 7.0296 20.4 7.94527 20.4 8.90005C20.4 9.85483 20.0207 10.7705 19.3456 11.4456C18.6705 12.1208 17.7548 12.5 16.8 12.5ZM11.4 16.4C10.6044 16.4 9.8413 16.7161 9.27869 17.2787C8.71608 17.8413 8.40001 18.6044 8.40001 19.4V20.96C8.40001 21.1192 8.3368 21.2718 8.22428 21.3843C8.11175 21.4968 7.95914 21.56 7.80001 21.56C7.64088 21.56 7.48827 21.4968 7.37575 21.3843C7.26323 21.2718 7.20001 21.1192 7.20001 20.96V19.4C7.20001 18.2861 7.64251 17.2179 8.43016 16.4302C9.21782 15.6425 10.2861 15.2 11.4 15.2C12.5139 15.2 13.5822 15.6425 14.3699 16.4302C15.1575 17.2179 15.6 18.2861 15.6 19.4V20.96C15.6 21.1192 15.5368 21.2718 15.4243 21.3843C15.3118 21.4968 15.1591 21.56 15 21.56C14.8409 21.56 14.6883 21.4968 14.5757 21.3843C14.4632 21.2718 14.4 21.1192 14.4 20.96V19.4C14.4 19.0061 14.3224 18.616 14.1717 18.252C14.0209 17.888 13.7999 17.5573 13.5213 17.2787C13.2428 17.0002 12.912 16.7792 12.5481 16.6284C12.1841 16.4776 11.794 16.4 11.4 16.4Z" fill="black"/>
<path fill-rule="evenodd" clip-rule="evenodd" d="M11.4 14.6001C12.0365 14.6001 12.647 14.3472 13.097 13.8972C13.5471 13.4471 13.8 12.8366 13.8 12.2001C13.8 11.5636 13.5471 10.9531 13.097 10.503C12.647 10.053 12.0365 9.8001 11.4 9.8001C10.7635 9.8001 10.153 10.053 9.70293 10.503C9.25284 10.9531 8.99999 11.5636 8.99999 12.2001C8.99999 12.8366 9.25284 13.4471 9.70293 13.8972C10.153 14.3472 10.7635 14.6001 11.4 14.6001ZM11.4 15.8001C12.3548 15.8001 13.2704 15.4208 13.9456 14.7457C14.6207 14.0706 15 13.1549 15 12.2001C15 11.2453 14.6207 10.3296 13.9456 9.65451C13.2704 8.97938 12.3548 8.6001 11.4 8.6001C10.4452 8.6001 9.52953 8.97938 8.8544 9.65451C8.17927 10.3296 7.79999 11.2453 7.79999 12.2001C7.79999 13.1549 8.17927 14.0706 8.8544 14.7457C9.52953 15.4208 10.4452 15.8001 11.4 15.8001Z" fill="black"/>
</svg>
