<svg width="24" height="24" viewBox="0 0 24 24" fill="none" xmlns="http://www.w3.org/2000/svg">
<path d="M24 12.16C24 10.48 22.7249 9.59999 20.9999 9.59999H15.9749C16.3499 8.15999 16.4999 6.8 16.4999 5.6C16.4999 0.959999 15.2999 0 14.2498 0C13.5748 0 13.0498 0.0800002 12.3748 0.48C12.1498 0.64 12.0748 0.8 11.9998 1.04L11.2498 5.36C10.4248 7.59999 8.39977 9.59999 6.74976 10.96V22.4C7.34976 22.4 7.94977 22.72 8.69978 23.12C9.52479 23.52 10.3498 24 11.2498 24H18.3749C19.8749 24 20.9999 22.72 20.9999 21.6C20.9999 21.36 20.9999 21.2 20.9249 21.04C21.8249 20.64 22.4999 19.84 22.4999 18.8C22.4999 18.32 22.4249 17.92 22.2749 17.52C22.8749 17.12 23.3999 16.4 23.3999 15.6C23.3999 15.12 23.1749 14.64 22.9499 14.24C23.5499 13.76 24 12.96 24 12.16ZM22.4249 12.16C22.4249 13.2 21.4499 13.28 21.2999 13.76C21.1499 14.32 21.8999 14.48 21.8999 15.44C21.8999 16.4 20.7749 16.4 20.6249 16.96C20.4749 17.6 20.9999 17.76 20.9999 18.72V18.88C20.8499 19.68 19.7249 19.76 19.4999 20.08C19.2749 20.48 19.4999 20.64 19.4999 21.52C19.4999 22 18.9749 22.32 18.3749 22.32H11.2498C10.6498 22.32 10.0498 22 9.29978 21.6C8.69978 21.28 8.09977 20.96 7.49976 20.8V12.4C9.37479 10.88 11.7748 8.63999 12.6748 5.84V5.68L13.3498 1.68C13.6498 1.6 13.8748 1.6 14.2498 1.6C14.3998 1.6 14.9998 2.56 14.9998 5.6C14.9998 6.8 14.7748 8.07999 14.3998 9.59999H14.2498C13.7998 9.59999 13.4998 9.91999 13.4998 10.4C13.4998 10.88 13.7998 11.2 14.2498 11.2H20.9999C21.7499 11.2 22.4249 11.6 22.4249 12.16Z" fill="black"/>
<path d="M6.00007 24H1.50002C0.675008 24 0 23.28 0 22.4V11.2C0 10.32 0.675008 9.59998 1.50002 9.59998H6.00007C6.82508 9.59998 7.50009 10.32 7.50009 11.2V22.4C7.50009 23.28 6.82508 24 6.00007 24ZM1.50002 11.2V22.4H6.00007V11.2H1.50002Z" fill="black"/>
</svg>
