<svg width="33" height="32" viewBox="0 0 33 32" fill="none" xmlns="http://www.w3.org/2000/svg">
<path d="M25.8333 5.33329H23.1666V3.99996C23.1666 3.64634 23.0262 3.3072 22.7761 3.05715C22.5261 2.8071 22.1869 2.66663 21.8333 2.66663C21.4797 2.66663 21.1405 2.8071 20.8905 3.05715C20.6404 3.3072 20.5 3.64634 20.5 3.99996V5.33329H12.5V3.99996C12.5 3.64634 12.3595 3.3072 12.1094 3.05715C11.8594 2.8071 11.5202 2.66663 11.1666 2.66663C10.813 2.66663 10.4739 2.8071 10.2238 3.05715C9.97377 3.3072 9.83329 3.64634 9.83329 3.99996V5.33329H7.16663C6.10576 5.33329 5.08834 5.75472 4.3382 6.50487C3.58805 7.25501 3.16663 8.27243 3.16663 9.33329V25.3333C3.16663 26.3942 3.58805 27.4116 4.3382 28.1617C5.08834 28.9119 6.10576 29.3333 7.16663 29.3333H25.8333C26.8942 29.3333 27.9116 28.9119 28.6617 28.1617C29.4119 27.4116 29.8333 26.3942 29.8333 25.3333V9.33329C29.8333 8.27243 29.4119 7.25501 28.6617 6.50487C27.9116 5.75472 26.8942 5.33329 25.8333 5.33329ZM27.1666 25.3333C27.1666 25.6869 27.0262 26.0261 26.7761 26.2761C26.5261 26.5262 26.1869 26.6666 25.8333 26.6666H7.16663C6.813 26.6666 6.47387 26.5262 6.22382 26.2761C5.97377 26.0261 5.83329 25.6869 5.83329 25.3333V16H27.1666V25.3333ZM27.1666 13.3333H5.83329V9.33329C5.83329 8.97967 5.97377 8.64053 6.22382 8.39048C6.47387 8.14044 6.813 7.99996 7.16663 7.99996H9.83329V9.33329C9.83329 9.68691 9.97377 10.0261 10.2238 10.2761C10.4739 10.5262 10.813 10.6666 11.1666 10.6666C11.5202 10.6666 11.8594 10.5262 12.1094 10.2761C12.3595 10.0261 12.5 9.68691 12.5 9.33329V7.99996H20.5V9.33329C20.5 9.68691 20.6404 10.0261 20.8905 10.2761C21.1405 10.5262 21.4797 10.6666 21.8333 10.6666C22.1869 10.6666 22.5261 10.5262 22.7761 10.2761C23.0262 10.0261 23.1666 9.68691 23.1666 9.33329V7.99996H25.8333C26.1869 7.99996 26.5261 8.14044 26.7761 8.39048C27.0262 8.64053 27.1666 8.97967 27.1666 9.33329V13.3333Z" fill="black"/>
</svg>
