<svg width="32" height="32" viewBox="0 0 32 32" fill="none" xmlns="http://www.w3.org/2000/svg">
<path d="M2.66667 25.3333C2.66667 27.6 4.4 29.3333 6.66667 29.3333H25.3333C27.6 29.3333 29.3333 27.6 29.3333 25.3333V14.6666H2.66667V25.3333ZM25.3333 5.33329H22.6667V3.99996C22.6667 3.19996 22.1333 2.66663 21.3333 2.66663C20.5333 2.66663 20 3.19996 20 3.99996V5.33329H12V3.99996C12 3.19996 11.4667 2.66663 10.6667 2.66663C9.86667 2.66663 9.33333 3.19996 9.33333 3.99996V5.33329H6.66667C4.4 5.33329 2.66667 7.06663 2.66667 9.33329V12H29.3333V9.33329C29.3333 7.06663 27.6 5.33329 25.3333 5.33329Z" fill="black"/>
</svg>
