<svg width="33" height="32" viewBox="0 0 33 32" fill="none" xmlns="http://www.w3.org/2000/svg">
<path d="M22.9167 5.33341V5.58341H23.1667H25.8333C26.8279 5.58341 27.7817 5.9785 28.485 6.68176C29.1882 7.38503 29.5833 8.33885 29.5833 9.33342V25.3334C29.5833 26.328 29.1882 27.2818 28.485 27.9851C27.7817 28.6883 26.8279 29.0834 25.8333 29.0834H7.16667C6.17211 29.0834 5.21828 28.6883 4.51502 27.9851C3.81176 27.2818 3.41667 26.328 3.41667 25.3334V9.33342C3.41667 8.33885 3.81176 7.38503 4.51502 6.68176C5.21828 5.9785 6.17211 5.58341 7.16667 5.58341H9.83333H10.0833V5.33341V4.00008C10.0833 3.71276 10.1975 3.43721 10.4006 3.23405C10.6038 3.03088 10.8793 2.91675 11.1667 2.91675C11.454 2.91675 11.7295 3.03088 11.9327 3.23405C12.1359 3.43721 12.25 3.71276 12.25 4.00008V5.33341V5.58341H12.5H20.5H20.75V5.33341V4.00008C20.75 3.71276 20.8641 3.43721 21.0673 3.23405C21.2705 3.03088 21.546 2.91675 21.8333 2.91675C22.1207 2.91675 22.3962 3.03088 22.5994 3.23405C22.8025 3.43721 22.9167 3.71276 22.9167 4.00008V5.33341ZM5.83333 15.7501H5.58333V16.0001V25.3334C5.58333 25.7533 5.75015 26.1561 6.04708 26.453C6.34401 26.7499 6.74674 26.9167 7.16667 26.9167H25.8333C26.2533 26.9167 26.656 26.7499 26.9529 26.453C27.2499 26.1561 27.4167 25.7533 27.4167 25.3334V16.0001V15.7501H27.1667H5.83333ZM27.1667 13.5834H27.4167V13.3334V9.33342C27.4167 8.91349 27.2499 8.51076 26.9529 8.21383C26.656 7.9169 26.2533 7.75008 25.8333 7.75008H23.1667H22.9167V8.00008V9.33342C22.9167 9.62073 22.8025 9.89628 22.5994 10.0994C22.3962 10.3026 22.1207 10.4167 21.8333 10.4167C21.546 10.4167 21.2705 10.3026 21.0673 10.0994C20.8641 9.89628 20.75 9.62073 20.75 9.33342V8.00008V7.75008H20.5H12.5H12.25V8.00008V9.33342C12.25 9.62073 12.1359 9.89628 11.9327 10.0994C11.7295 10.3026 11.454 10.4167 11.1667 10.4167C10.8793 10.4167 10.6038 10.3026 10.4006 10.0994C10.1975 9.89628 10.0833 9.62073 10.0833 9.33342V8.00008V7.75008H9.83333H7.16667C6.74674 7.75008 6.34401 7.9169 6.04708 8.21383C5.75015 8.51076 5.58333 8.91349 5.58333 9.33342V13.3334V13.5834H5.83333H27.1667Z" stroke="black" stroke-width="0.5"/>
</svg>
