<svg width="33" height="32" viewBox="0 0 33 32" fill="none" xmlns="http://www.w3.org/2000/svg">
<path fill-rule="evenodd" clip-rule="evenodd" d="M17.4427 3.05737C17.1926 2.80741 16.8535 2.66699 16.5 2.66699C16.1464 2.66699 15.8074 2.80741 15.5573 3.05737L6.22399 12.3907L3.55732 15.0574C3.42997 15.1804 3.3284 15.3275 3.25852 15.4902C3.18864 15.6528 3.15186 15.8278 3.15032 16.0048C3.14878 16.1819 3.18252 16.3575 3.24956 16.5213C3.3166 16.6852 3.4156 16.834 3.54079 16.9592C3.66598 17.0844 3.81485 17.1834 3.97871 17.2505C4.14258 17.3175 4.31815 17.3512 4.49519 17.3497C4.67223 17.3482 4.84719 17.3114 5.00986 17.2415C5.17253 17.1716 5.31966 17.0701 5.44265 16.9427L5.83332 16.552V25.3334C5.83332 26.3942 6.25475 27.4117 7.00489 28.1618C7.75504 28.9119 8.77245 29.3334 9.83332 29.3334H23.1667C24.2275 29.3334 25.2449 28.9119 25.9951 28.1618C26.7452 27.4117 27.1667 26.3942 27.1667 25.3334V16.552L27.5573 16.9427C27.8088 17.1856 28.1456 17.32 28.4952 17.3169C28.8448 17.3139 29.1792 17.1737 29.4264 16.9265C29.6736 16.6793 29.8139 16.3448 29.8169 15.9952C29.8199 15.6456 29.6855 15.3088 29.4427 15.0574L17.4427 3.05737Z" fill="black"/>
</svg>
