<svg width="33" height="32" viewBox="0 0 33 32" fill="none" xmlns="http://www.w3.org/2000/svg">
<path d="M26.5 13.3333C26.5 13.1565 26.4298 12.987 26.3048 12.8619C26.1797 12.7369 26.0102 12.6667 25.8334 12.6667C25.6565 12.6667 25.487 12.7369 25.362 12.8619C25.2369 12.987 25.1667 13.1565 25.1667 13.3333H26.5ZM7.83336 13.3333C7.83336 13.1565 7.76312 12.987 7.6381 12.8619C7.51307 12.7369 7.34351 12.6667 7.16669 12.6667C6.98988 12.6667 6.82031 12.7369 6.69529 12.8619C6.57027 12.987 6.50003 13.1565 6.50003 13.3333H7.83336ZM28.028 16.472C28.1532 16.5972 28.323 16.6675 28.5 16.6675C28.6771 16.6675 28.8468 16.5972 28.972 16.472C29.0972 16.3468 29.1675 16.177 29.1675 16C29.1675 15.823 29.0972 15.6532 28.972 15.528L28.028 16.472ZM16.5 4.00001L16.972 3.52801C16.9101 3.46593 16.8365 3.41667 16.7555 3.38306C16.6745 3.34945 16.5877 3.33215 16.5 3.33215C16.4123 3.33215 16.3255 3.34945 16.2445 3.38306C16.1635 3.41667 16.09 3.46593 16.028 3.52801L16.5 4.00001ZM4.02803 15.528C3.90285 15.6532 3.83252 15.823 3.83252 16C3.83252 16.177 3.90285 16.3468 4.02803 16.472C4.15321 16.5972 4.32299 16.6675 4.50003 16.6675C4.67706 16.6675 4.84685 16.5972 4.97203 16.472L4.02803 15.528ZM9.83336 28.6667H23.1667V27.3333H9.83336V28.6667ZM26.5 25.3333V13.3333H25.1667V25.3333H26.5ZM7.83336 25.3333V13.3333H6.50003V25.3333H7.83336ZM28.972 15.528L16.972 3.52801L16.028 4.47201L28.028 16.472L28.972 15.528ZM16.028 3.52801L4.02803 15.528L4.97203 16.472L16.972 4.47201L16.028 3.52801ZM23.1667 28.6667C24.0507 28.6667 24.8986 28.3155 25.5237 27.6904C26.1488 27.0652 26.5 26.2174 26.5 25.3333H25.1667C25.1667 25.8638 24.956 26.3725 24.5809 26.7476C24.2058 27.1226 23.6971 27.3333 23.1667 27.3333V28.6667ZM9.83336 27.3333C9.30293 27.3333 8.79422 27.1226 8.41915 26.7476C8.04407 26.3725 7.83336 25.8638 7.83336 25.3333H6.50003C6.50003 26.2174 6.85122 27.0652 7.47634 27.6904C8.10146 28.3155 8.94931 28.6667 9.83336 28.6667V27.3333Z" fill="black"/>
</svg>
