<svg width="32" height="32" viewBox="0 0 32 32" fill="none" xmlns="http://www.w3.org/2000/svg">
<mask id="path-1-inside-1_253_803" fill="white">
<path d="M7.33333 2.66675C6.44928 2.66675 5.60143 3.01794 4.97631 3.64306C4.35119 4.26818 4 5.11603 4 6.00008V26.0001C4 26.8841 4.35119 27.732 4.97631 28.3571C5.60143 28.9822 6.44928 29.3334 7.33333 29.3334H17.08C16.5084 28.7384 16.0244 28.0649 15.6427 27.3334H7.33333C6.97971 27.3334 6.64057 27.1929 6.39052 26.9429C6.14048 26.6928 6 26.3537 6 26.0001H15.084C14.8748 25.3512 14.7432 24.6799 14.692 24.0001H6V6.00008C6 5.64646 6.14048 5.30732 6.39052 5.05727C6.64057 4.80722 6.97971 4.66675 7.33333 4.66675H22.6667C23.0203 4.66675 23.3594 4.80722 23.6095 5.05727C23.8595 5.30732 24 5.64646 24 6.00008V14.6921C24.6933 14.7454 25.3627 14.8787 26 15.0841V6.00008C26 5.11603 25.6488 4.26818 25.0237 3.64306C24.3986 3.01794 23.5507 2.66675 22.6667 2.66675H7.33333ZM30.6667 23.3334C30.6667 21.3885 29.894 19.5232 28.5188 18.148C27.1435 16.7727 25.2783 16.0001 23.3333 16.0001C21.3884 16.0001 19.5231 16.7727 18.1479 18.148C16.7726 19.5232 16 21.3885 16 23.3334C16 25.2783 16.7726 27.1436 18.1479 28.5189C19.5231 29.8941 21.3884 30.6667 23.3333 30.6667C25.2783 30.6667 27.1435 29.8941 28.5188 28.5189C29.894 27.1436 30.6667 25.2783 30.6667 23.3334ZM22.552 20.1294L26.2933 22.5827C26.4093 22.6572 26.5044 22.7598 26.5697 22.8811C26.635 23.0024 26.6684 23.1383 26.6667 23.2761C26.6668 23.4147 26.6339 23.5514 26.5707 23.6747C26.511 23.7969 26.4199 23.9009 26.3067 23.9761L22.564 26.5294C22.4989 26.5732 22.428 26.6078 22.3533 26.6321C22.18 26.6874 21.9924 26.6765 21.8267 26.6014C21.7312 26.5567 21.6441 26.4958 21.5693 26.4214C21.4971 26.3428 21.4385 26.2527 21.396 26.1547C21.3544 26.0546 21.3331 25.9472 21.3333 25.8387V20.8281C21.3326 20.6676 21.3785 20.5105 21.4654 20.3756C21.5522 20.2407 21.6763 20.1339 21.8227 20.0681C21.9389 20.0136 22.0674 19.9905 22.1953 20.001C22.3233 20.0115 22.4462 20.0553 22.552 20.1281M8 8.00008C8 7.64646 8.14048 7.30732 8.39052 7.05727C8.64057 6.80722 8.97971 6.66675 9.33333 6.66675H20C20.3536 6.66675 20.6928 6.80722 20.9428 7.05727C21.1929 7.30732 21.3333 7.64646 21.3333 8.00008V10.6667C21.3333 11.0204 21.1929 11.3595 20.9428 11.6096C20.6928 11.8596 20.3536 12.0001 20 12.0001H9.33333C8.97971 12.0001 8.64057 11.8596 8.39052 11.6096C8.14048 11.3595 8 11.0204 8 10.6667V8.00008ZM10 10.0001H19.3333V8.66675H10V10.0001Z"/>
</mask>
<path d="M4 6.00008H3.4H4ZM17.08 29.3334V29.9334H18.4884L17.5127 28.9178L17.08 29.3334ZM15.6427 27.3334L16.1746 27.0558L16.0063 26.7334H15.6427V27.3334ZM6 26.0001V25.4001H5.4V26.0001H6ZM15.084 26.0001V26.6001H15.9078L15.6551 25.816L15.084 26.0001ZM14.692 24.0001L15.2903 23.955L15.2485 23.4001H14.692V24.0001ZM6 24.0001H5.4V24.6001H6V24.0001ZM7.33333 4.66675L7.33333 4.06675L7.33333 4.66675ZM22.6667 4.66675V4.06675V4.66675ZM24 14.6921H23.4V15.2477L23.954 15.2903L24 14.6921ZM26 15.0841L25.816 15.6552L26.6 15.9078V15.0841H26ZM26.2933 22.5827L25.9643 23.0845L25.9692 23.0877L26.2933 22.5827ZM26.6667 23.2761L26.0667 23.2687L26.0667 23.2767L26.6667 23.2761ZM26.5707 23.6747L26.0366 23.401L26.0316 23.4113L26.5707 23.6747ZM26.3067 23.9761L25.9746 23.4763L25.9685 23.4804L26.3067 23.9761ZM22.564 26.5294L22.899 27.0272L22.9021 27.0251L22.564 26.5294ZM22.3533 26.6321L22.5358 27.2037L22.539 27.2026L22.3533 26.6321ZM21.8267 26.6014L21.5722 27.1449L21.5791 27.1479L21.8267 26.6014ZM21.5693 26.4214L21.1274 26.8272L21.1365 26.8372L21.1461 26.8467L21.5693 26.4214ZM21.396 26.1547L20.8419 26.3852L20.8457 26.3939L21.396 26.1547ZM21.3333 25.8387L21.9333 25.8403V25.8387H21.3333ZM21.3333 20.8281L21.9333 20.8281L21.9333 20.8255L21.3333 20.8281ZM21.8227 20.0681L22.0687 20.6154L22.0773 20.6114L21.8227 20.0681ZM9.33333 6.66675V7.26675V6.66675ZM10 10.0001H9.4V10.6001H10V10.0001ZM19.3333 10.0001V10.6001H19.9333V10.0001H19.3333ZM19.3333 8.66675H19.9333V8.06675H19.3333V8.66675ZM10 8.66675V8.06675H9.4V8.66675H10ZM7.33333 2.06675C6.29015 2.06675 5.28969 2.48115 4.55205 3.21879L5.40057 4.06732C5.91317 3.55472 6.60841 3.26675 7.33333 3.26675V2.06675ZM4.55205 3.21879C3.8144 3.95644 3.4 4.9569 3.4 6.00008H4.6C4.6 5.27516 4.88798 4.57992 5.40057 4.06732L4.55205 3.21879ZM3.4 6.00008V26.0001H4.6V6.00008H3.4ZM3.4 26.0001C3.4 27.0433 3.8144 28.0437 4.55205 28.7814L5.40057 27.9328C4.88798 27.4202 4.6 26.725 4.6 26.0001H3.4ZM4.55205 28.7814C5.28969 29.519 6.29015 29.9334 7.33333 29.9334V28.7334C6.60841 28.7334 5.91317 28.4454 5.40057 27.9328L4.55205 28.7814ZM7.33333 29.9334H17.08V28.7334H7.33333V29.9334ZM17.5127 28.9178C16.9805 28.3638 16.53 27.7368 16.1746 27.0558L15.1107 27.611C15.5188 28.393 16.0362 29.1129 16.6473 29.7491L17.5127 28.9178ZM15.6427 26.7334H7.33333V27.9334H15.6427V26.7334ZM7.33333 26.7334C7.13884 26.7334 6.95231 26.6562 6.81479 26.5186L5.96626 27.3672C6.32883 27.7297 6.82058 27.9334 7.33333 27.9334V26.7334ZM6.81479 26.5186C6.67726 26.3811 6.6 26.1946 6.6 26.0001H5.4C5.4 26.5128 5.60369 27.0046 5.96626 27.3672L6.81479 26.5186ZM6 26.6001H15.084V25.4001H6V26.6001ZM15.6551 25.816C15.4604 25.2122 15.338 24.5875 15.2903 23.955L14.0937 24.0452C14.1485 24.7722 14.2892 25.4902 14.5129 26.1842L15.6551 25.816ZM14.692 23.4001H6V24.6001H14.692V23.4001ZM6.6 24.0001V6.00008H5.4V24.0001H6.6ZM6.6 6.00008C6.6 5.80559 6.67726 5.61906 6.81479 5.48154L5.96626 4.63301C5.60369 4.99558 5.4 5.48733 5.4 6.00008H6.6ZM6.81479 5.48154C6.95232 5.34401 7.13884 5.26675 7.33333 5.26675L7.33333 4.06675C6.82058 4.06675 6.32883 4.27044 5.96626 4.63301L6.81479 5.48154ZM7.33333 5.26675H22.6667V4.06675H7.33333V5.26675ZM22.6667 5.26675C22.8612 5.26675 23.0477 5.34401 23.1852 5.48154L24.0337 4.63301C23.6712 4.27044 23.1794 4.06675 22.6667 4.06675V5.26675ZM23.1852 5.48154C23.3227 5.61906 23.4 5.80559 23.4 6.00008H24.6C24.6 5.48733 24.3963 4.99558 24.0337 4.63301L23.1852 5.48154ZM23.4 6.00008V14.6921H24.6V6.00008H23.4ZM23.954 15.2903C24.6003 15.34 25.2234 15.4642 25.816 15.6552L26.184 14.513C25.502 14.2933 24.7863 14.1508 24.046 14.0938L23.954 15.2903ZM26.6 15.0841V6.00008H25.4V15.0841H26.6ZM26.6 6.00008C26.6 4.9569 26.1856 3.95644 25.448 3.21879L24.5994 4.06732C25.112 4.57992 25.4 5.27516 25.4 6.00008H26.6ZM25.448 3.21879C24.7103 2.48115 23.7099 2.06675 22.6667 2.06675V3.26675C23.3916 3.26675 24.0868 3.55472 24.5994 4.06732L25.448 3.21879ZM22.6667 2.06675H7.33333V3.26675H22.6667V2.06675ZM31.2667 23.3334C31.2667 21.2294 30.4308 19.2115 28.943 17.7237L28.0945 18.5722C29.3573 19.835 30.0667 21.5476 30.0667 23.3334H31.2667ZM28.943 17.7237C27.4553 16.2359 25.4374 15.4001 23.3333 15.4001V16.6001C25.1191 16.6001 26.8318 17.3095 28.0945 18.5722L28.943 17.7237ZM23.3333 15.4001C21.2293 15.4001 19.2114 16.2359 17.7236 17.7237L18.5721 18.5722C19.8349 17.3095 21.5475 16.6001 23.3333 16.6001V15.4001ZM17.7236 17.7237C16.2358 19.2115 15.4 21.2294 15.4 23.3334H16.6C16.6 21.5476 17.3094 19.835 18.5721 18.5722L17.7236 17.7237ZM15.4 23.3334C15.4 25.4375 16.2358 27.4553 17.7236 28.9431L18.5721 28.0946C17.3094 26.8319 16.6 25.1192 16.6 23.3334H15.4ZM17.7236 28.9431C19.2114 30.4309 21.2293 31.2667 23.3333 31.2667V30.0667C21.5475 30.0667 19.8349 29.3573 18.5721 28.0946L17.7236 28.9431ZM23.3333 31.2667C25.4374 31.2667 27.4553 30.4309 28.943 28.9431L28.0945 28.0946C26.8318 29.3573 25.1191 30.0667 23.3333 30.0667V31.2667ZM28.943 28.9431C30.4308 27.4553 31.2667 25.4375 31.2667 23.3334H30.0667C30.0667 25.1192 29.3573 26.8319 28.0945 28.0946L28.943 28.9431ZM22.223 20.6312L25.9643 23.0845L26.6223 22.081L22.881 19.6277L22.223 20.6312ZM25.9692 23.0877C25.9995 23.1071 26.0243 23.1339 26.0414 23.1656L27.098 22.5967C26.9844 22.3858 26.819 22.2072 26.6174 22.0778L25.9692 23.0877ZM26.0414 23.1656C26.0584 23.1973 26.0672 23.2327 26.0667 23.2687L27.2666 23.2835C27.2696 23.0439 27.2115 22.8076 27.098 22.5967L26.0414 23.1656ZM26.0667 23.2767C26.0667 23.32 26.0564 23.3626 26.0367 23.4011L27.1046 23.9484C27.2114 23.7402 27.2669 23.5095 27.2667 23.2755L26.0667 23.2767ZM26.0316 23.4113C26.0187 23.4376 25.999 23.4601 25.9746 23.4764L26.6387 24.4758C26.8407 24.3416 27.0032 24.1561 27.1097 23.9382L26.0316 23.4113ZM25.9685 23.4804L22.2259 26.0338L22.9021 27.0251L26.6448 24.4717L25.9685 23.4804ZM22.229 26.0316C22.2101 26.0444 22.1894 26.0545 22.1677 26.0615L22.539 27.2026C22.6666 27.1611 22.7877 27.1021 22.899 27.0272L22.229 26.0316ZM22.1708 26.0605C22.1391 26.0707 22.1047 26.0687 22.0743 26.0549L21.5791 27.1479C21.8801 27.2843 22.221 27.3042 22.5358 27.2037L22.1708 26.0605ZM22.0811 26.058C22.0482 26.0426 22.0183 26.0217 21.9925 25.9961L21.1461 26.8467C21.2699 26.9699 21.4141 27.0708 21.5723 27.1448L22.0811 26.058ZM22.0113 26.0156C21.9842 25.9861 21.9622 25.9523 21.9463 25.9156L20.8457 26.3939C20.9149 26.553 21.01 26.6994 21.1274 26.8272L22.0113 26.0156ZM21.95 25.9243C21.9389 25.8977 21.9333 25.8691 21.9333 25.8403L20.7333 25.8372C20.7328 26.0253 20.7698 26.2115 20.842 26.3852L21.95 25.9243ZM21.9333 25.8387V20.8281H20.7333V25.8387H21.9333ZM21.9333 20.8255C21.9331 20.7811 21.9458 20.7377 21.9698 20.7004L20.9609 20.0507C20.8112 20.2832 20.7322 20.5542 20.7333 20.8307L21.9333 20.8255ZM21.9698 20.7004C21.9939 20.6631 22.0282 20.6335 22.0686 20.6153L21.5767 19.5208C21.3245 19.6342 21.1106 19.8183 20.9609 20.0507L21.9698 20.7004ZM22.0773 20.6114C22.0987 20.6013 22.1225 20.597 22.1461 20.599L22.2445 19.403C22.0123 19.3839 21.7791 19.4259 21.5681 19.5248L22.0773 20.6114ZM22.1461 20.599C22.1698 20.6009 22.1925 20.609 22.212 20.6225L22.892 19.6337C22.7 19.5017 22.4768 19.4221 22.2445 19.403L22.1461 20.599ZM8.6 8.00008C8.6 7.80559 8.67726 7.61906 8.81479 7.48154L7.96626 6.63301C7.60369 6.99558 7.4 7.48733 7.4 8.00008H8.6ZM8.81479 7.48154C8.95232 7.34401 9.13884 7.26675 9.33333 7.26675L9.33333 6.06675C8.82058 6.06675 8.32883 6.27044 7.96626 6.63301L8.81479 7.48154ZM9.33333 7.26675H20V6.06675H9.33333V7.26675ZM20 7.26675C20.1945 7.26675 20.381 7.34401 20.5185 7.48154L21.3671 6.63301C21.0045 6.27044 20.5128 6.06675 20 6.06675V7.26675ZM20.5185 7.48154C20.6561 7.61906 20.7333 7.80559 20.7333 8.00008H21.9333C21.9333 7.48733 21.7296 6.99558 21.3671 6.63301L20.5185 7.48154ZM20.7333 8.00008V10.6667H21.9333V8.00008H20.7333ZM20.7333 10.6667C20.7333 10.8612 20.6561 11.0478 20.5185 11.1853L21.3671 12.0338C21.7296 11.6713 21.9333 11.1795 21.9333 10.6667H20.7333ZM20.5185 11.1853C20.381 11.3228 20.1945 11.4001 20 11.4001V12.6001C20.5128 12.6001 21.0045 12.3964 21.3671 12.0338L20.5185 11.1853ZM20 11.4001H9.33333V12.6001H20V11.4001ZM9.33333 11.4001C9.13884 11.4001 8.95232 11.3228 8.81479 11.1853L7.96626 12.0338C8.32883 12.3964 8.82058 12.6001 9.33333 12.6001V11.4001ZM8.81479 11.1853C8.67726 11.0478 8.6 10.8612 8.6 10.6667H7.4C7.4 11.1795 7.60369 11.6713 7.96626 12.0338L8.81479 11.1853ZM8.6 10.6667V8.00008H7.4V10.6667H8.6ZM10 10.6001H19.3333V9.40008H10V10.6001ZM19.9333 10.0001V8.66675H18.7333V10.0001H19.9333ZM19.3333 8.06675H10V9.26675H19.3333V8.06675ZM9.4 8.66675V10.0001H10.6V8.66675H9.4Z" fill="black" mask="url(#path-1-inside-1_253_803)"/>
</svg>
