<svg width="33" height="32" viewBox="0 0 33 32" fill="none" xmlns="http://www.w3.org/2000/svg">
<mask id="path-1-inside-1_222_262" fill="white">
<path d="M7.58333 2.66663C6.69928 2.66663 5.85143 3.01782 5.22631 3.64294C4.60119 4.26806 4.25 5.1159 4.25 5.99996V26C4.25 26.884 4.60119 27.7319 5.22631 28.357C5.85143 28.9821 6.69928 29.3333 7.58333 29.3333H17.33C16.7584 28.7382 16.2744 28.0648 15.8927 27.3333H7.58333C7.22971 27.3333 6.89057 27.1928 6.64052 26.9428C6.39048 26.6927 6.25 26.3536 6.25 26H15.334C15.1248 25.3511 14.9932 24.6798 14.942 24H6.25V5.99996C6.25 5.64634 6.39048 5.3072 6.64052 5.05715C6.89057 4.8071 7.22971 4.66663 7.58333 4.66663H22.9167C23.2703 4.66663 23.6094 4.8071 23.8595 5.05715C24.1095 5.3072 24.25 5.64634 24.25 5.99996V14.692C24.9433 14.7453 25.6127 14.8786 26.25 15.084V5.99996C26.25 5.1159 25.8988 4.26806 25.2737 3.64294C24.6486 3.01782 23.8007 2.66663 22.9167 2.66663H7.58333ZM30.9167 23.3333C30.9167 21.3884 30.144 19.5231 28.7688 18.1478C27.3935 16.7726 25.5283 16 23.5833 16C21.6384 16 19.7731 16.7726 18.3979 18.1478C17.0226 19.5231 16.25 21.3884 16.25 23.3333C16.25 25.2782 17.0226 27.1435 18.3979 28.5187C19.7731 29.894 21.6384 30.6666 23.5833 30.6666C25.5283 30.6666 27.3935 29.894 28.7688 28.5187C30.144 27.1435 30.9167 25.2782 30.9167 23.3333ZM22.802 20.1293L26.5433 22.5826C26.6593 22.657 26.7544 22.7597 26.8197 22.881C26.885 23.0023 26.9184 23.1382 26.9167 23.276C26.9168 23.4146 26.8839 23.5513 26.8207 23.6746C26.761 23.7967 26.6699 23.9007 26.5567 23.976L22.814 26.5293C22.7489 26.5731 22.678 26.6077 22.6033 26.632C22.43 26.6873 22.2424 26.6764 22.0767 26.6013C21.9812 26.5566 21.8941 26.4957 21.8193 26.4213C21.7471 26.3427 21.6885 26.2525 21.646 26.1546C21.6044 26.0545 21.583 25.9471 21.5833 25.8386V20.828C21.5826 20.6675 21.6285 20.5103 21.7154 20.3754C21.8022 20.2405 21.9263 20.1337 22.0727 20.068C22.1889 20.0135 22.3174 19.9904 22.4453 20.0009C22.5733 20.0114 22.6962 20.0552 22.802 20.128M8.25 7.99996C8.25 7.64634 8.39048 7.3072 8.64052 7.05715C8.89057 6.8071 9.22971 6.66663 9.58333 6.66663H20.25C20.6036 6.66663 20.9428 6.8071 21.1928 7.05715C21.4429 7.3072 21.5833 7.64634 21.5833 7.99996V10.6666C21.5833 11.0202 21.4429 11.3594 21.1928 11.6094C20.9428 11.8595 20.6036 12 20.25 12H9.58333C9.22971 12 8.89057 11.8595 8.64052 11.6094C8.39048 11.3594 8.25 11.0202 8.25 10.6666V7.99996ZM10.25 9.99996H19.5833V8.66663H10.25V9.99996Z"/>
</mask>
<path d="M4.25 5.99996H3.25H4.25ZM17.33 29.3333V30.3333H19.6773L18.0512 28.6405L17.33 29.3333ZM15.8927 27.3333L16.7792 26.8707L16.4988 26.3333H15.8927V27.3333ZM6.25 26V25H5.25V26H6.25ZM15.334 26V27H16.7071L16.2858 25.6931L15.334 26ZM14.942 24L15.9392 23.9248L15.8695 23H14.942V24ZM6.25 24H5.25V25H6.25V24ZM7.58333 4.66663V3.66663V4.66663ZM22.9167 4.66663V3.66663V4.66663ZM24.25 14.692H23.25V15.618L24.1733 15.689L24.25 14.692ZM26.25 15.084L25.9433 16.0358L27.25 16.4568V15.084H26.25ZM26.5433 22.5826L25.9949 23.4189L26.0032 23.4242L26.5433 22.5826ZM26.9167 23.276L25.9167 23.2637L25.9167 23.277L26.9167 23.276ZM26.8207 23.6746L25.9308 23.2185L25.9264 23.2269L25.9222 23.2355L26.8207 23.6746ZM26.5567 23.976L26.0032 23.143L25.9931 23.1499L26.5567 23.976ZM22.814 26.5293L23.3723 27.359L23.3776 27.3554L22.814 26.5293ZM22.6033 26.632L22.9075 27.5846L22.9128 27.5829L22.6033 26.632ZM22.0767 26.6013L21.6526 27.507L21.664 27.5122L22.0767 26.6013ZM21.8193 26.4213L21.0828 27.0976L21.098 27.1143L21.114 27.1302L21.8193 26.4213ZM21.646 26.1546L20.7227 26.5386L20.7257 26.5459L20.7289 26.5532L21.646 26.1546ZM21.5833 25.8386L22.5833 25.8412V25.8386H21.5833ZM21.5833 20.828H22.5833L22.5833 20.8237L21.5833 20.828ZM22.0727 20.068L22.4826 20.9801L22.4898 20.9768L22.497 20.9735L22.0727 20.068ZM9.58333 6.66663V7.66663V6.66663ZM10.25 9.99996H9.25V11H10.25V9.99996ZM19.5833 9.99996V11H20.5833V9.99996H19.5833ZM19.5833 8.66663H20.5833V7.66663H19.5833V8.66663ZM10.25 8.66663V7.66663H9.25V8.66663H10.25ZM7.58333 1.66663C6.43406 1.66663 5.33186 2.12317 4.5192 2.93583L5.93342 4.35004C6.371 3.91246 6.96449 3.66663 7.58333 3.66663V1.66663ZM4.5192 2.93583C3.70655 3.74849 3.25 4.85069 3.25 5.99996H5.25C5.25 5.38112 5.49583 4.78763 5.93342 4.35004L4.5192 2.93583ZM3.25 5.99996V26H5.25V5.99996H3.25ZM3.25 26C3.25 27.1492 3.70655 28.2514 4.5192 29.0641L5.93342 27.6499C5.49583 27.2123 5.25 26.6188 5.25 26H3.25ZM4.5192 29.0641C5.33186 29.8767 6.43406 30.3333 7.58333 30.3333V28.3333C6.96449 28.3333 6.371 28.0875 5.93342 27.6499L4.5192 29.0641ZM7.58333 30.3333H17.33V28.3333H7.58333V30.3333ZM18.0512 28.6405C17.5453 28.1139 17.117 27.518 16.7792 26.8707L15.0061 27.7959C15.4318 28.6116 15.9714 29.3625 16.6088 30.0261L18.0512 28.6405ZM15.8927 26.3333H7.58333V28.3333H15.8927V26.3333ZM7.58333 26.3333C7.49493 26.3333 7.41014 26.2982 7.34763 26.2357L5.93342 27.6499C6.371 28.0875 6.9645 28.3333 7.58333 28.3333V26.3333ZM7.34763 26.2357C7.28512 26.1732 7.25 26.0884 7.25 26H5.25C5.25 26.6188 5.49583 27.2123 5.93342 27.6499L7.34763 26.2357ZM6.25 27H15.334V25H6.25V27ZM16.2858 25.6931C16.1008 25.1194 15.9845 24.5259 15.9392 23.9248L13.9448 24.0751C14.002 24.8337 14.1488 25.5828 14.3822 26.3068L16.2858 25.6931ZM14.942 23H6.25V25H14.942V23ZM7.25 24V5.99996H5.25V24H7.25ZM7.25 5.99996C7.25 5.91155 7.28512 5.82677 7.34763 5.76426L5.93342 4.35004C5.49583 4.78763 5.25 5.38112 5.25 5.99996H7.25ZM7.34763 5.76426C7.41014 5.70174 7.49493 5.66663 7.58333 5.66663L7.58333 3.66663C6.96449 3.66663 6.371 3.91246 5.93342 4.35004L7.34763 5.76426ZM7.58333 5.66663H22.9167V3.66663H7.58333V5.66663ZM22.9167 5.66663C23.0051 5.66663 23.0899 5.70175 23.1524 5.76426L24.5666 4.35004C24.129 3.91246 23.5355 3.66663 22.9167 3.66663V5.66663ZM23.1524 5.76426C23.2149 5.82677 23.25 5.91155 23.25 5.99996H25.25C25.25 5.38112 25.0042 4.78763 24.5666 4.35004L23.1524 5.76426ZM23.25 5.99996V14.692H25.25V5.99996H23.25ZM24.1733 15.689C24.7883 15.7363 25.3805 15.8544 25.9433 16.0358L26.5567 14.1321C25.8448 13.9028 25.0983 13.7543 24.3267 13.6949L24.1733 15.689ZM27.25 15.084V5.99996H25.25V15.084H27.25ZM27.25 5.99996C27.25 4.85069 26.7935 3.74849 25.9808 2.93583L24.5666 4.35004C25.0042 4.78763 25.25 5.38112 25.25 5.99996H27.25ZM25.9808 2.93583C25.1681 2.12317 24.0659 1.66663 22.9167 1.66663V3.66663C23.5355 3.66663 24.129 3.91246 24.5666 4.35004L25.9808 2.93583ZM22.9167 1.66663H7.58333V3.66663H22.9167V1.66663ZM31.9167 23.3333C31.9167 21.1232 31.0387 19.0035 29.4759 17.4407L28.0617 18.8549C29.2494 20.0427 29.9167 21.6536 29.9167 23.3333H31.9167ZM29.4759 17.4407C27.9131 15.8779 25.7935 15 23.5833 15V17C25.263 17 26.8739 17.6672 28.0617 18.8549L29.4759 17.4407ZM23.5833 15C21.3732 15 19.2536 15.8779 17.6908 17.4407L19.105 18.8549C20.2927 17.6672 21.9036 17 23.5833 17V15ZM17.6908 17.4407C16.128 19.0035 15.25 21.1232 15.25 23.3333H17.25C17.25 21.6536 17.9173 20.0427 19.105 18.8549L17.6908 17.4407ZM15.25 23.3333C15.25 25.5434 16.128 27.663 17.6908 29.2259L19.105 27.8116C17.9173 26.6239 17.25 25.013 17.25 23.3333H15.25ZM17.6908 29.2259C19.2536 30.7887 21.3732 31.6666 23.5833 31.6666V29.6666C21.9036 29.6666 20.2927 28.9994 19.105 27.8116L17.6908 29.2259ZM23.5833 31.6666C25.7935 31.6666 27.9131 30.7887 29.4759 29.2259L28.0617 27.8116C26.8739 28.9994 25.263 29.6666 23.5833 29.6666V31.6666ZM29.4759 29.2259C31.0387 27.663 31.9167 25.5434 31.9167 23.3333H29.9167C29.9167 25.013 29.2494 26.6239 28.0617 27.8116L29.4759 29.2259ZM22.2536 20.9655L25.995 23.4189L27.0917 21.7464L23.3504 19.293L22.2536 20.9655ZM26.0032 23.4242C25.9763 23.407 25.9543 23.3832 25.9392 23.3551L27.7001 22.4069C27.5544 22.1362 27.3422 21.9071 27.0835 21.7411L26.0032 23.4242ZM25.9392 23.3551C25.9241 23.327 25.9163 23.2956 25.9167 23.2637L27.9166 23.2883C27.9204 22.9809 27.8459 22.6776 27.7001 22.4069L25.9392 23.3551ZM25.9167 23.277C25.9166 23.2567 25.9215 23.2366 25.9308 23.2185L27.7106 24.1308C27.8463 23.8659 27.917 23.5725 27.9167 23.2749L25.9167 23.277ZM25.9222 23.2355C25.9405 23.198 25.9685 23.1662 26.0032 23.1431L27.1101 24.8088C27.3712 24.6353 27.5814 24.3954 27.7191 24.1138L25.9222 23.2355ZM25.9931 23.1499L22.2504 25.7032L23.3776 27.3554L27.1202 24.802L25.9931 23.1499ZM22.2557 25.6996C22.2675 25.6917 22.2803 25.6855 22.2939 25.681L22.9128 27.5829C23.0756 27.5299 23.2302 27.4545 23.3723 27.3589L22.2557 25.6996ZM22.2991 25.6793C22.3617 25.6594 22.4295 25.6633 22.4894 25.6904L21.664 27.5122C22.0552 27.6894 22.4983 27.7152 22.9075 27.5846L22.2991 25.6793ZM22.5007 25.6956C22.5096 25.6998 22.5177 25.7055 22.5247 25.7124L21.114 27.1302C21.2705 27.2859 21.4527 27.4134 21.6527 27.507L22.5007 25.6956ZM22.5559 25.7449C22.5589 25.7482 22.5614 25.752 22.5631 25.7561L20.7289 26.5532C20.8157 26.7531 20.9353 26.9371 21.0828 27.0976L22.5559 25.7449ZM22.5693 25.7706C22.5786 25.793 22.5834 25.817 22.5833 25.8412L20.5833 25.836C20.5827 26.0772 20.6301 26.316 20.7227 26.5386L22.5693 25.7706ZM22.5833 25.8386V20.828H20.5833V25.8386H22.5833ZM22.5833 20.8237C22.5835 20.8567 22.574 20.889 22.5562 20.9168L20.8746 19.8341C20.683 20.1316 20.5818 20.4784 20.5833 20.8323L22.5833 20.8237ZM22.5562 20.9168C22.5383 20.9445 22.5127 20.9665 22.4826 20.9801L21.6627 19.1559C21.3399 19.3009 21.0661 19.5365 20.8746 19.8341L22.5562 20.9168ZM22.497 20.9735C22.4553 20.993 22.4092 21.0013 22.3633 20.9975L22.5273 19.0043C22.2255 18.9794 21.9225 19.034 21.6483 19.1625L22.497 20.9735ZM22.3633 20.9975C22.3174 20.9937 22.2733 20.978 22.2354 20.9519L23.3686 19.304C23.1191 19.1324 22.8291 19.0291 22.5273 19.0043L22.3633 20.9975ZM9.25 7.99996C9.25 7.91155 9.28512 7.82677 9.34763 7.76426L7.93342 6.35004C7.49583 6.78763 7.25 7.38112 7.25 7.99996H9.25ZM9.34763 7.76426C9.41014 7.70174 9.49493 7.66663 9.58333 7.66663V5.66663C8.96449 5.66663 8.371 5.91246 7.93342 6.35004L9.34763 7.76426ZM9.58333 7.66663H20.25V5.66663H9.58333V7.66663ZM20.25 7.66663C20.3384 7.66663 20.4232 7.70174 20.4857 7.76426L21.8999 6.35004C21.4623 5.91246 20.8688 5.66663 20.25 5.66663V7.66663ZM20.4857 7.76426C20.5482 7.82677 20.5833 7.91155 20.5833 7.99996H22.5833C22.5833 7.38112 22.3375 6.78763 21.8999 6.35004L20.4857 7.76426ZM20.5833 7.99996V10.6666H22.5833V7.99996H20.5833ZM20.5833 10.6666C20.5833 10.755 20.5482 10.8398 20.4857 10.9023L21.8999 12.3165C22.3375 11.879 22.5833 11.2855 22.5833 10.6666H20.5833ZM20.4857 10.9023C20.4232 10.9648 20.3384 11 20.25 11V13C20.8688 13 21.4623 12.7541 21.8999 12.3165L20.4857 10.9023ZM20.25 11H9.58333V13H20.25V11ZM9.58333 11C9.49493 11 9.41014 10.9648 9.34763 10.9023L7.93342 12.3165C8.371 12.7541 8.96449 13 9.58333 13V11ZM9.34763 10.9023C9.28512 10.8398 9.25 10.755 9.25 10.6666H7.25C7.25 11.2855 7.49583 11.879 7.93342 12.3165L9.34763 10.9023ZM9.25 10.6666V7.99996H7.25V10.6666H9.25ZM10.25 11H19.5833V8.99996H10.25V11ZM20.5833 9.99996V8.66663H18.5833V9.99996H20.5833ZM19.5833 7.66663H10.25V9.66663H19.5833V7.66663ZM9.25 8.66663V9.99996H11.25V8.66663H9.25Z" fill="black" mask="url(#path-1-inside-1_222_262)"/>
</svg>
