<svg width="33" height="32" viewBox="0 0 33 32" fill="none" xmlns="http://www.w3.org/2000/svg">
<path d="M7.83333 2.66663H23.1667C24.0507 2.66663 24.8986 3.01782 25.5237 3.64294C26.1488 4.26806 26.5 5.1159 26.5 5.99996V15.084C24.9807 14.5917 23.3548 14.5288 21.802 14.9023C20.2492 15.2758 18.8298 16.0711 17.7005 17.2004C16.5711 18.3297 15.7758 19.7492 15.4024 21.302C15.0289 22.8548 15.0917 24.4806 15.584 26H6.5C6.5 26.3536 6.64048 26.6927 6.89052 26.9428C7.14057 27.1928 7.47971 27.3333 7.83333 27.3333H16.1427C16.5244 28.0648 17.0084 28.7382 17.58 29.3333H7.83333C6.94928 29.3333 6.10143 28.9821 5.47631 28.357C4.85119 27.7319 4.5 26.884 4.5 26V5.99996C4.5 5.1159 4.85119 4.26806 5.47631 3.64294C6.10143 3.01782 6.94928 2.66663 7.83333 2.66663ZM9.83333 6.66663C9.47971 6.66663 9.14057 6.8071 8.89052 7.05715C8.64048 7.3072 8.5 7.64634 8.5 7.99996V9.33329C8.5 9.68691 8.64048 10.0261 8.89052 10.2761C9.14057 10.5262 9.47971 10.6666 9.83333 10.6666H20.5C20.8536 10.6666 21.1928 10.5262 21.4428 10.2761C21.6929 10.0261 21.8333 9.68691 21.8333 9.33329V7.99996C21.8333 7.64634 21.6929 7.3072 21.4428 7.05715C21.1928 6.8071 20.8536 6.66663 20.5 6.66663H9.83333ZM31.1667 23.3333C31.1667 21.3884 30.394 19.5231 29.0188 18.1478C27.6435 16.7726 25.7783 16 23.8333 16C21.8884 16 20.0231 16.7726 18.6479 18.1478C17.2726 19.5231 16.5 21.3884 16.5 23.3333C16.5 25.2782 17.2726 27.1435 18.6479 28.5187C20.0231 29.894 21.8884 30.6666 23.8333 30.6666C25.7783 30.6666 27.6435 29.894 29.0188 28.5187C30.394 27.1435 31.1667 25.2782 31.1667 23.3333ZM23.052 20.1293L26.7933 22.5826C26.9093 22.657 27.0044 22.7597 27.0697 22.881C27.135 23.0023 27.1684 23.1382 27.1667 23.276C27.1668 23.4146 27.1339 23.5513 27.0707 23.6746C27.011 23.7967 26.9199 23.9007 26.8067 23.976L23.064 26.5293C22.9989 26.5731 22.928 26.6077 22.8533 26.632C22.68 26.6873 22.4924 26.6764 22.3267 26.6013C22.2312 26.5566 22.1441 26.4957 22.0693 26.4213C21.9971 26.3427 21.9385 26.2525 21.896 26.1546C21.8544 26.0545 21.8331 25.9471 21.8333 25.8386V20.828C21.8326 20.6675 21.8785 20.5103 21.9654 20.3754C22.0522 20.2405 22.1763 20.1337 22.3227 20.068C22.4389 20.0135 22.5674 19.9904 22.6953 20.0009C22.8233 20.0114 22.9462 20.0552 23.052 20.128" fill="black"/>
</svg>
