<svg width="32" height="32" viewBox="0 0 32 32" fill="none" xmlns="http://www.w3.org/2000/svg">
<path d="M26.24 14.848C26.24 13.504 25.152 12.8 23.68 12.8H19.392C19.712 11.648 19.84 10.56 19.84 9.6C19.84 5.888 18.816 5.12 17.92 5.12C17.344 5.12 16.896 5.184 16.32 5.504C16.128 5.632 16.064 5.76 16 5.952L15.36 9.40799C14.656 11.2 12.928 12.8 11.52 13.888V23.04C12.032 23.04 12.544 23.296 13.184 23.616C13.888 23.936 14.592 24.32 15.36 24.32H21.44C22.72 24.32 23.68 23.296 23.68 22.4C23.68 22.208 23.68 22.08 23.616 21.952C24.384 21.632 24.96 20.992 24.96 20.16C24.96 19.776 24.896 19.456 24.768 19.136C25.28 18.816 25.728 18.24 25.728 17.6C25.728 17.216 25.536 16.832 25.344 16.512C25.856 16.128 26.24 15.488 26.24 14.848ZM24.896 14.848C24.896 15.68 24.064 15.744 23.936 16.128C23.808 16.576 24.448 16.704 24.448 17.472C24.448 18.24 23.488 18.24 23.36 18.688C23.232 19.2 23.68 19.328 23.68 20.096V20.224C23.552 20.864 22.592 20.928 22.4 21.184C22.208 21.504 22.4 21.632 22.4 22.336C22.4 22.72 21.952 22.976 21.44 22.976H15.36C14.848 22.976 14.336 22.72 13.696 22.4C13.184 22.144 12.672 21.888 12.16 21.76V15.04C13.76 13.824 15.808 12.032 16.576 9.792V9.664L17.152 6.464C17.408 6.4 17.6 6.4 17.92 6.4C18.048 6.4 18.56 7.168 18.56 9.6C18.56 10.56 18.368 11.584 18.048 12.8H17.92C17.536 12.8 17.28 13.056 17.28 13.44C17.28 13.824 17.536 14.08 17.92 14.08H23.68C24.32 14.08 24.896 14.4 24.896 14.848Z" fill="black"/>
<path d="M10.24 24.32H6.4C5.696 24.32 5.12 23.7441 5.12 23.04V14.08C5.12 13.376 5.696 12.8 6.4 12.8H10.24C10.944 12.8 11.52 13.376 11.52 14.08V23.04C11.52 23.7441 10.944 24.32 10.24 24.32ZM6.4 14.08V23.04H10.24V14.08H6.4Z" fill="black"/>
</svg>
