<svg width="32" height="32" viewBox="0 0 32 32" fill="none" xmlns="http://www.w3.org/2000/svg">
<path fill-rule="evenodd" clip-rule="evenodd" d="M10.08 29.6252C10.848 29.9919 11.6883 30.1825 12.5394 30.1829H24.7589C26.1215 30.1829 27.4392 29.696 28.4744 28.81C29.5096 27.9239 30.1942 26.6972 30.4046 25.3509L31.8354 16.2012C31.9378 15.5489 31.8976 14.8822 31.7177 14.2469C31.5377 13.6116 31.2223 13.0228 30.7931 12.521C30.3639 12.0193 29.8311 11.6165 29.2313 11.3403C28.6316 11.0641 27.9791 10.9211 27.3189 10.9212H19.8171V5.53605C19.8182 4.71335 19.5461 3.91357 19.0436 3.26222C18.541 2.61086 17.8364 2.1448 17.0403 1.93715C16.2443 1.7295 15.4018 1.79203 14.6451 2.11492C13.8884 2.43781 13.2603 3.00278 12.8594 3.72119L8.11199 12.2012C7.82553 12.7131 7.67522 13.29 7.67542 13.8766V26.3155C7.67532 26.963 7.8586 27.5974 8.20406 28.1451C8.54951 28.6928 9.043 29.1315 9.62742 29.4103L10.0846 29.6275L10.08 29.6252ZM2.38628 12.6195C2.08712 12.6192 1.79084 12.6778 1.51437 12.7921C1.2379 12.9064 0.986664 13.074 0.775022 13.2855C0.563381 13.4969 0.395485 13.748 0.280934 14.0243C0.166383 14.3007 0.107422 14.5969 0.107422 14.896V26.5806C0.107422 27.185 0.347515 27.7646 0.774884 28.192C1.20225 28.6194 1.78189 28.8595 2.38628 28.8595H3.51999C3.8231 28.8595 4.11379 28.7391 4.32812 28.5247C4.54244 28.3104 4.66285 28.0197 4.66285 27.7166V13.76C4.66285 13.4569 4.54244 13.1663 4.32812 12.9519C4.11379 12.7376 3.8231 12.6172 3.51999 12.6172L2.38628 12.6195Z" fill="black"/>
</svg>
