<svg width="32" height="32" viewBox="0 0 32 32" fill="none" xmlns="http://www.w3.org/2000/svg">
<path d="M16 26.88C9.98399 26.88 5.12 22.016 5.12 16C5.12 9.98399 9.98399 5.12 16 5.12C22.016 5.12 26.88 9.98399 26.88 16C26.88 22.016 22.016 26.88 16 26.88ZM16 6.39999C10.688 6.39999 6.39999 10.688 6.39999 16C6.39999 21.312 10.688 25.6 16 25.6C21.312 25.6 25.6 21.312 25.6 16C25.6 10.688 21.312 6.39999 16 6.39999Z" fill="black"/>
<path d="M10.24 15.36H21.76V16.64H10.24V15.36Z" fill="black"/>
<path d="M15.36 10.24H16.64V21.76H15.36V10.24Z" fill="black"/>
</svg>
