<svg width="32" height="32" viewBox="0 0 32 32" fill="none" xmlns="http://www.w3.org/2000/svg">
<path d="M29.3537 13.6463L19.3537 3.64628C19.2838 3.57627 19.1947 3.52859 19.0976 3.50926C19.0006 3.48994 18.9 3.49984 18.8086 3.53772C18.7171 3.57559 18.639 3.63974 18.5841 3.72204C18.5292 3.80433 18.4999 3.90108 18.5 4.00003V9.51128C11.75 9.81628 3.44621 16.205 2.50746 24.3863C2.48117 24.5952 2.52259 24.807 2.62565 24.9906C2.7287 25.1742 2.88794 25.3199 3.07996 25.4063C3.21321 25.4694 3.35876 25.5023 3.50621 25.5025C3.6423 25.5021 3.77684 25.4736 3.90138 25.4188C4.02593 25.3639 4.13779 25.2839 4.22996 25.1838C5.67121 23.65 10.8912 18.7175 18.5 18.5088V24C18.4999 24.099 18.5292 24.1957 18.5841 24.278C18.639 24.3603 18.7171 24.4245 18.8086 24.4623C18.9 24.5002 19.0006 24.5101 19.0976 24.4908C19.1947 24.4715 19.2838 24.4238 19.3537 24.3538L29.3537 14.3538C29.4002 14.3073 29.4371 14.2522 29.4622 14.1915C29.4874 14.1308 29.5003 14.0657 29.5003 14C29.5003 13.9343 29.4874 13.8693 29.4622 13.8086C29.4371 13.7479 29.4002 13.6927 29.3537 13.6463ZM19.5 22.7913V18C19.5 17.8674 19.4473 17.7402 19.3535 17.6465C19.2597 17.5527 19.1326 17.5 19 17.5C15.5762 17.5 12.24 18.3963 9.08246 20.1625C7.01556 21.3216 5.13386 22.7837 3.49996 24.5C3.91996 20.8488 5.94371 17.315 9.19996 14.5538C12.1912 12.0138 15.8537 10.5 19 10.5C19.1326 10.5 19.2597 10.4473 19.3535 10.3536C19.4473 10.2598 19.5 10.1326 19.5 10V5.20753L28.2925 14L19.5 22.7913Z" fill="black"/>
</svg>
