<svg width="24" height="24" viewBox="0 0 24 24" fill="none" xmlns="http://www.w3.org/2000/svg">
<path fill-rule="evenodd" clip-rule="evenodd" d="M7.55999 22.2189C8.13603 22.494 8.76623 22.6369 9.40457 22.6372H18.5691C19.5911 22.6372 20.5794 22.272 21.3558 21.6075C22.1322 20.943 22.6456 20.0229 22.8034 19.0132L23.8766 12.1509C23.9533 11.6617 23.9232 11.1616 23.7882 10.6851C23.6533 10.2087 23.4167 9.7671 23.0948 9.39078C22.7729 9.01447 22.3733 8.71235 21.9235 8.50522C21.4737 8.29808 20.9843 8.19085 20.4891 8.19089H14.8629V4.15204C14.8637 3.53501 14.6596 2.93518 14.2827 2.44666C13.9057 1.95815 13.3773 1.6086 12.7802 1.45286C12.1832 1.29713 11.5513 1.34402 10.9838 1.58619C10.4163 1.82836 9.94525 2.25209 9.64457 2.79089L6.084 9.15089C5.86915 9.53484 5.75641 9.96749 5.75657 10.4075V19.7366C5.75649 20.2223 5.89395 20.698 6.15304 21.1088C6.41213 21.5196 6.78225 21.8486 7.22057 22.0577L7.56342 22.2206L7.55999 22.2189ZM1.78971 9.46461C1.56534 9.46438 1.34313 9.50838 1.13578 9.59409C0.928426 9.67979 0.739998 9.80552 0.581267 9.9641C0.422536 10.1227 0.296614 10.311 0.2107 10.5182C0.124787 10.7255 0.0805663 10.9477 0.0805664 11.172V19.9355C0.0805664 20.3888 0.260636 20.8235 0.581163 21.144C0.901689 21.4645 1.33642 21.6446 1.78971 21.6446H2.63999C2.86732 21.6446 3.08534 21.5543 3.24609 21.3936C3.40683 21.2328 3.49714 21.0148 3.49714 20.7875V10.32C3.49714 10.0927 3.40683 9.87469 3.24609 9.71394C3.08534 9.5532 2.86732 9.46289 2.63999 9.46289L1.78971 9.46461Z" fill="black"/>
</svg>
