<svg width="24" height="24" viewBox="0 0 24 24" fill="none" xmlns="http://www.w3.org/2000/svg">
<ellipse cx="12.4573" cy="10.9573" rx="6.5" ry="6" fill="white"/>
<path d="M10.0069 2.10414C9.32832 1.88468 8.5938 1.91411 7.93499 2.18716C7.27619 2.46021 6.7362 2.95902 6.41186 3.59414L5.60586 5.17014C5.51008 5.35777 5.35749 5.51036 5.16986 5.60614L3.59286 6.41214C2.95774 6.73649 2.45893 7.27647 2.18588 7.93528C1.91283 8.59408 1.8834 9.32861 2.10286 10.0071L2.64886 11.6921C2.71368 11.8924 2.71368 12.1079 2.64886 12.3081L2.10386 13.9931C1.8844 14.6717 1.91383 15.4062 2.18688 16.065C2.45993 16.7238 2.95874 17.2638 3.59386 17.5881L5.16986 18.3941C5.35749 18.4899 5.51008 18.6425 5.60586 18.8301L6.41186 20.4071C6.7362 21.0423 7.27619 21.5411 7.93499 21.8141C8.5938 22.0872 9.32832 22.1166 10.0069 21.8971L11.6919 21.3511C11.8921 21.2863 12.1076 21.2863 12.3079 21.3511L13.9929 21.8961C14.6713 22.1157 15.4057 22.0864 16.0645 21.8135C16.7233 21.5407 17.2634 21.0421 17.5879 20.4071L18.3939 18.8301C18.4896 18.6425 18.6422 18.4899 18.8299 18.3941L20.4069 17.5891C21.0422 17.2648 21.5412 16.7246 21.8142 16.0656C22.0873 15.4066 22.1166 14.6718 21.8969 13.9931L21.3509 12.3081C21.286 12.1079 21.286 11.8924 21.3509 11.6921L21.8959 10.0071C22.1154 9.32872 22.0861 8.59428 21.8133 7.93549C21.5404 7.27671 21.0418 6.73665 20.4069 6.41214L18.8299 5.60614C18.6422 5.51036 18.4896 5.35777 18.3939 5.17014L17.5889 3.59314C17.2645 2.9578 16.7243 2.45884 16.0653 2.18577C15.4063 1.9127 14.6715 1.88341 13.9929 2.10314L12.3079 2.64914C12.1076 2.71396 11.8921 2.71396 11.6919 2.64914L10.0069 2.10414ZM6.75986 11.7571L8.17386 10.3431L11.0019 13.1721L16.6589 7.51514L18.0739 8.92914L11.0019 15.9991L6.75986 11.7571Z" fill="#3A2EFE"/>
</svg>
