<svg width="24" height="25" viewBox="0 0 24 25" fill="none" xmlns="http://www.w3.org/2000/svg">
<path d="M7.72 16.956L9.481 16.448L20.084 5.71797C20.1676 5.63226 20.2142 5.5171 20.2136 5.39735C20.2131 5.27761 20.1654 5.16288 20.081 5.07797L19.446 4.43597C19.405 4.39381 19.3559 4.36024 19.3018 4.33723C19.2477 4.31421 19.1895 4.30222 19.1306 4.30194C19.0718 4.30166 19.0135 4.3131 18.9591 4.3356C18.9048 4.3581 18.8554 4.3912 18.814 4.43297L8.239 15.135L7.72 16.956ZM20.703 3.16397L21.338 3.80697C22.214 4.69397 22.222 6.12497 21.354 7.00297L10.428 18.061L6.664 19.145C6.4342 19.2093 6.18826 19.1798 5.98016 19.063C5.77206 18.9462 5.6188 18.7516 5.554 18.522C5.50578 18.3568 5.50509 18.1815 5.552 18.016L6.647 14.176L17.544 3.14697C17.7512 2.93833 17.9979 2.77303 18.2696 2.66072C18.5414 2.54841 18.8328 2.49134 19.1269 2.49283C19.4209 2.49432 19.7117 2.55434 19.9823 2.6694C20.2529 2.78445 20.4979 2.95324 20.703 3.16397ZM9.184 4.31697C9.68 4.31697 10.082 4.72397 10.082 5.22597C10.0828 5.34464 10.0602 5.4623 10.0155 5.57222C9.97076 5.68215 9.90481 5.78218 9.82141 5.8666C9.73801 5.95102 9.63879 6.01818 9.52942 6.06423C9.42004 6.11028 9.30267 6.13431 9.184 6.13497H5.592C4.6 6.13497 3.796 6.94897 3.796 7.95197V18.858C3.796 19.862 4.6 20.676 5.592 20.676H16.368C17.36 20.676 18.165 19.862 18.165 18.858V15.223C18.165 14.721 18.567 14.314 19.063 14.314C19.559 14.314 19.961 14.721 19.961 15.224V18.858C19.961 20.866 18.352 22.494 16.368 22.494H5.592C3.608 22.494 2 20.866 2 18.858V7.95197C2 5.94497 3.608 4.31697 5.592 4.31697H9.184Z" fill="black"/>
</svg>
